# xmcd
#
# Track frame offsets:
#	150
#	57988
#	84943
#	117409
#	152587
#	181497
#	204953
#	241293
#	272766
#	299067
#
# Disc length: 4499 seconds
#
# Revision: 29
# Processed by: cddbd v1.5.2PL0 Copyright (c) Steve Scherf et al.
# Submitted via: EasyCDDAExtractor 16.0.6.1
#
DISCID=8c11910a
DTITLE=Eric Clapton - R-604 Blues CD 2
DYEAR=1999
DGENRE=Blues
TTITLE0=Stormy Monday
TTITLE1=Worried Life Blues
TTITLE2=Early In The Morning
TTITLE3=Have You Ever Loved A Woman
TTITLE4=Wonderful Tonight
TTITLE5=Kind Hearted Woman
TTITLE6=Double Trouble
TTITLE7=Driftin' Blues
TTITLE8=Crossroads
TTITLE9=Further On Up The Road
EXTD=Year: 1999 [CD 2 from 2)
EXTT0=
EXTT1=
EXTT2=
EXTT3=
EXTT4=
EXTT5=
EXTT6=
EXTT7=
EXTT8=
EXTT9=
PLAYORDER=
